<svg width="16" height="17" viewBox="0 0 16 17" fill="none" xmlns="http://www.w3.org/2000/svg">
<path d="M7.246 11.587C7.20733 11.5494 7.042 11.4071 6.906 11.2746C6.05067 10.4979 4.65067 8.47159 4.22333 7.41102C4.15467 7.24996 4.00933 6.84275 4 6.62518C4 6.41671 4.048 6.21797 4.14533 6.02833C4.28133 5.79193 4.49533 5.60229 4.748 5.49838C4.92333 5.43148 5.448 5.32757 5.45733 5.32757C6.03133 5.22366 6.964 5.1665 7.99467 5.1665C8.97667 5.1665 9.87133 5.22366 10.454 5.30873C10.4633 5.31848 11.1153 5.42239 11.3387 5.53604C11.7467 5.74452 12 6.15173 12 6.58751V6.62518C11.99 6.90899 11.7367 7.50584 11.7273 7.50584C11.2993 8.50925 9.968 10.4888 9.08333 11.2844C9.08333 11.2844 8.856 11.5084 8.714 11.6059C8.51 11.7578 8.25733 11.8332 8.00467 11.8332C7.72267 11.8332 7.46 11.7481 7.246 11.587Z" fill="#131415"/>
</svg>
