<svg width="187" height="53" viewBox="0 0 187 53" fill="none" xmlns="http://www.w3.org/2000/svg">
<path d="M4.872 24V7.08H7.2L17.016 19.776H16.392V7.08H19.272V24H16.944L7.152 11.304H7.752V24H4.872ZM28.6052 24.24C26.5732 24.24 24.9812 23.68 23.8292 22.56C22.6772 21.44 22.1012 19.904 22.1012 17.952C22.1012 16.688 22.3492 15.584 22.8452 14.64C23.3412 13.696 24.0292 12.96 24.9092 12.432C25.8052 11.904 26.8452 11.64 28.0292 11.64C29.1972 11.64 30.1732 11.888 30.9572 12.384C31.7412 12.88 32.3332 13.576 32.7332 14.472C33.1492 15.368 33.3572 16.416 33.3572 17.616V18.408H24.5252V16.824H31.2212L30.8132 17.16C30.8132 16.04 30.5732 15.184 30.0932 14.592C29.6292 14 28.9492 13.704 28.0532 13.704C27.0612 13.704 26.2932 14.056 25.7492 14.76C25.2212 15.464 24.9572 16.448 24.9572 17.712V18.024C24.9572 19.336 25.2772 20.32 25.9172 20.976C26.5732 21.616 27.4932 21.936 28.6772 21.936C29.3652 21.936 30.0052 21.848 30.5972 21.672C31.2052 21.48 31.7812 21.176 32.3252 20.76L33.2132 22.776C32.6372 23.24 31.9492 23.6 31.1492 23.856C30.3492 24.112 29.5012 24.24 28.6052 24.24ZM33.9553 24L39.5953 17.064V18.432L34.2673 11.88H37.8193L41.2993 16.368H40.2193L43.6993 11.88H47.2273L41.9473 18.432V17.064L47.5633 24H43.9873L40.2193 19.176H41.2993L37.5073 24H33.9553ZM54.1832 24.24C52.7432 24.24 51.6552 23.864 50.9192 23.112C50.1832 22.36 49.8152 21.232 49.8152 19.728V14.136H47.4872V11.88H49.8152V8.784L52.8152 8.016V11.88H56.0552V14.136H52.8152V19.536C52.8152 20.368 52.9752 20.952 53.2952 21.288C53.6152 21.624 54.0552 21.792 54.6152 21.792C54.9192 21.792 55.1752 21.768 55.3832 21.72C55.6072 21.672 55.8232 21.608 56.0312 21.528V23.904C55.7592 24.016 55.4552 24.096 55.1192 24.144C54.7992 24.208 54.4872 24.24 54.1832 24.24ZM66.4929 24.24C64.5889 24.24 62.9889 23.888 61.6929 23.184C60.3969 22.48 59.4209 21.48 58.7649 20.184C58.1089 18.888 57.7809 17.352 57.7809 15.576C57.7809 13.784 58.1329 12.24 58.8369 10.944C59.5409 9.632 60.5489 8.624 61.8609 7.92C63.1889 7.2 64.7809 6.84 66.6369 6.84C67.8689 6.84 68.9489 7.008 69.8769 7.344C70.8049 7.664 71.6209 8.136 72.3249 8.76L71.2929 11.16C70.7809 10.76 70.2929 10.44 69.8289 10.2C69.3649 9.96 68.8849 9.792 68.3889 9.696C67.8929 9.584 67.3169 9.528 66.6609 9.528C64.8049 9.528 63.3969 10.056 62.4369 11.112C61.4929 12.152 61.0209 13.648 61.0209 15.6C61.0209 17.552 61.4689 19.04 62.3649 20.064C63.2769 21.088 64.7009 21.6 66.6369 21.6C67.2929 21.6 67.9489 21.536 68.6049 21.408C69.2769 21.28 69.9329 21.096 70.5729 20.856L69.9969 22.152V17.088H66.0369V14.832H72.5649V22.968C71.7809 23.368 70.8449 23.68 69.7569 23.904C68.6689 24.128 67.5809 24.24 66.4929 24.24ZM81.7146 24.24C79.6826 24.24 78.0906 23.68 76.9386 22.56C75.7866 21.44 75.2106 19.904 75.2106 17.952C75.2106 16.688 75.4586 15.584 75.9546 14.64C76.4506 13.696 77.1386 12.96 78.0186 12.432C78.9146 11.904 79.9546 11.64 81.1386 11.64C82.3066 11.64 83.2826 11.888 84.0666 12.384C84.8506 12.88 85.4426 13.576 85.8426 14.472C86.2586 15.368 86.4666 16.416 86.4666 17.616V18.408H77.6346V16.824H84.3306L83.9226 17.16C83.9226 16.04 83.6826 15.184 83.2026 14.592C82.7386 14 82.0586 13.704 81.1626 13.704C80.1706 13.704 79.4026 14.056 78.8586 14.76C78.3306 15.464 78.0666 16.448 78.0666 17.712V18.024C78.0666 19.336 78.3866 20.32 79.0266 20.976C79.6826 21.616 80.6026 21.936 81.7866 21.936C82.4746 21.936 83.1146 21.848 83.7066 21.672C84.3146 21.48 84.8906 21.176 85.4346 20.76L86.3226 22.776C85.7466 23.24 85.0586 23.6 84.2586 23.856C83.4586 24.112 82.6106 24.24 81.7146 24.24ZM89.007 24V14.904C89.007 14.408 88.991 13.904 88.959 13.392C88.927 12.88 88.879 12.376 88.815 11.88H91.719L91.959 14.28H91.671C92.055 13.432 92.623 12.784 93.375 12.336C94.127 11.872 94.999 11.64 95.991 11.64C97.415 11.64 98.487 12.04 99.207 12.84C99.927 13.64 100.287 14.888 100.287 16.584V24H97.287V16.728C97.287 15.752 97.095 15.056 96.711 14.64C96.343 14.208 95.783 13.992 95.031 13.992C94.103 13.992 93.367 14.28 92.823 14.856C92.279 15.432 92.007 16.2 92.007 17.16V24H89.007Z" fill="#131415"/>
<path d="M106.896 33V16.08H109.608L115.824 30.072H115.08L121.296 16.08H123.984V33H121.176V20.448H122.04L116.352 33H114.504L108.816 20.448H109.704V33H106.896ZM132.987 33.24C131.739 33.24 130.659 32.984 129.747 32.472C128.835 31.96 128.123 31.232 127.611 30.288C127.115 29.344 126.867 28.224 126.867 26.928C126.867 25.632 127.115 24.52 127.611 23.592C128.123 22.648 128.835 21.92 129.747 21.408C130.659 20.896 131.739 20.64 132.987 20.64C134.235 20.64 135.315 20.896 136.227 21.408C137.155 21.92 137.867 22.648 138.363 23.592C138.875 24.52 139.131 25.632 139.131 26.928C139.131 28.224 138.875 29.344 138.363 30.288C137.867 31.232 137.155 31.96 136.227 32.472C135.315 32.984 134.235 33.24 132.987 33.24ZM132.987 30.936C133.931 30.936 134.683 30.608 135.243 29.952C135.803 29.28 136.083 28.272 136.083 26.928C136.083 25.584 135.803 24.584 135.243 23.928C134.683 23.272 133.931 22.944 132.987 22.944C132.043 22.944 131.291 23.272 130.731 23.928C130.171 24.584 129.891 25.584 129.891 26.928C129.891 28.272 130.171 29.28 130.731 29.952C131.291 30.608 132.043 30.936 132.987 30.936ZM146.422 33.24C145.366 33.24 144.43 32.992 143.614 32.496C142.814 31.984 142.19 31.256 141.742 30.312C141.294 29.368 141.07 28.24 141.07 26.928C141.07 25.616 141.294 24.496 141.742 23.568C142.19 22.624 142.814 21.904 143.614 21.408C144.43 20.896 145.366 20.64 146.422 20.64C147.43 20.64 148.318 20.888 149.086 21.384C149.87 21.864 150.39 22.52 150.646 23.352H150.334V15.336H153.334V33H150.382V30.432H150.67C150.414 31.296 149.894 31.984 149.11 32.496C148.342 32.992 147.446 33.24 146.422 33.24ZM147.262 30.936C148.206 30.936 148.966 30.608 149.542 29.952C150.118 29.28 150.406 28.272 150.406 26.928C150.406 25.584 150.118 24.584 149.542 23.928C148.966 23.272 148.206 22.944 147.262 22.944C146.318 22.944 145.55 23.272 144.958 23.928C144.382 24.584 144.094 25.584 144.094 26.928C144.094 28.272 144.382 29.28 144.958 29.952C145.55 30.608 146.318 30.936 147.262 30.936ZM162.457 33.24C160.425 33.24 158.833 32.68 157.681 31.56C156.529 30.44 155.953 28.904 155.953 26.952C155.953 25.688 156.201 24.584 156.697 23.64C157.193 22.696 157.881 21.96 158.761 21.432C159.657 20.904 160.697 20.64 161.881 20.64C163.049 20.64 164.025 20.888 164.809 21.384C165.593 21.88 166.185 22.576 166.585 23.472C167.001 24.368 167.209 25.416 167.209 26.616V27.408H158.377V25.824H165.073L164.665 26.16C164.665 25.04 164.425 24.184 163.945 23.592C163.481 23 162.801 22.704 161.905 22.704C160.913 22.704 160.145 23.056 159.601 23.76C159.073 24.464 158.809 25.448 158.809 26.712V27.024C158.809 28.336 159.129 29.32 159.769 29.976C160.425 30.616 161.345 30.936 162.529 30.936C163.217 30.936 163.857 30.848 164.449 30.672C165.057 30.48 165.633 30.176 166.177 29.76L167.065 31.776C166.489 32.24 165.801 32.6 165.001 32.856C164.201 33.112 163.353 33.24 162.457 33.24ZM169.749 33V15.336H172.749V33H169.749ZM180.327 33.24C179.287 33.24 178.327 33.12 177.447 32.88C176.583 32.624 175.855 32.272 175.263 31.824L176.103 29.808C176.711 30.224 177.383 30.544 178.119 30.768C178.855 30.992 179.599 31.104 180.351 31.104C181.151 31.104 181.743 30.968 182.127 30.696C182.527 30.424 182.727 30.056 182.727 29.592C182.727 29.224 182.599 28.936 182.343 28.728C182.103 28.504 181.711 28.336 181.167 28.224L178.767 27.768C177.743 27.544 176.959 27.16 176.415 26.616C175.887 26.072 175.623 25.36 175.623 24.48C175.623 23.728 175.823 23.064 176.223 22.488C176.639 21.912 177.223 21.464 177.975 21.144C178.743 20.808 179.639 20.64 180.663 20.64C181.559 20.64 182.399 20.76 183.183 21C183.983 21.24 184.655 21.6 185.199 22.08L184.335 24.024C183.839 23.624 183.271 23.312 182.631 23.088C181.991 22.864 181.367 22.752 180.759 22.752C179.927 22.752 179.319 22.904 178.935 23.208C178.551 23.496 178.359 23.872 178.359 24.336C178.359 24.688 178.471 24.984 178.695 25.224C178.935 25.448 179.303 25.616 179.799 25.728L182.199 26.184C183.271 26.392 184.079 26.76 184.623 27.288C185.183 27.8 185.463 28.504 185.463 29.4C185.463 30.2 185.247 30.888 184.815 31.464C184.383 32.04 183.783 32.48 183.015 32.784C182.247 33.088 181.351 33.24 180.327 33.24Z" fill="#131415"/>
<path d="M3.5343 46.568C18.9215 37.9866 39.1134 30.1738 44.4654 31.0703C49.8175 31.9669 34.1871 48.2757 37.5929 49.0015C40.9988 49.7272 68.2454 37.4316 76.8211 37.5597C85.3963 37.6878 76.3953 49.0015 92.6947 49.0015C105.735 49.0015 171.188 45.6714 183.393 44.0064" stroke="#DC710E" stroke-width="6.81683" stroke-linecap="round"/>
</svg>
