<svg width="97" height="381" viewBox="0 0 97 381" fill="none" xmlns="http://www.w3.org/2000/svg">
<path opacity="0.15" d="M95.0909 2.95455L2 2.95455V-14.0455L60.5909 -54.5455V-55.2273L2 -55.2273V-74.9091L95.0909 -74.9091V-57.6364L36.5455 -17.4545V-16.6364H95.0909V2.95455ZM71.8182 35.0341L47.4091 47.8523L71.8182 60.9886V80.8523L36.9091 60.625L2 81.3977V61.625L26.1364 47.8523L2 34.3068V14.3068L36.9091 35.0341L71.8182 15.0341V35.0341ZM71.8182 129.489H57.2727V87.4432H71.8182L71.8182 129.489ZM88.5455 96.9886L88.5455 116.352H23.4545C21.6667 116.352 20.2727 116.625 19.2727 117.17C18.303 117.716 17.6212 118.473 17.2273 119.443C16.8333 120.443 16.6364 121.595 16.6364 122.898C16.6364 123.807 16.7121 124.716 16.8636 125.625C17.0455 126.534 17.1818 127.231 17.2727 127.716L2.86364 130.761C2.56061 129.792 2.21212 128.428 1.81818 126.67C1.39394 124.913 1.13636 122.777 1.04545 120.261C0.863636 115.595 1.48485 111.504 2.90909 107.989C4.33333 104.504 6.54545 101.792 9.54545 99.8523C12.5455 97.9129 16.3333 96.9583 20.9091 96.9886H88.5455ZM65 204.193C67.2121 203.557 69.1667 202.663 70.8636 201.511C72.5909 200.36 74.0455 198.951 75.2273 197.284C76.4394 195.648 77.3636 193.769 78 191.648C78.6364 189.557 78.9545 187.239 78.9545 184.693C78.9545 179.936 77.7727 175.754 75.4091 172.148C73.0455 168.572 69.6061 165.784 65.0909 163.784C60.6061 161.784 55.1212 160.784 48.6364 160.784C42.1515 160.784 36.6364 161.769 32.0909 163.739C27.5455 165.708 24.0758 168.496 21.6818 172.102C19.3182 175.708 18.1364 179.966 18.1364 184.875C18.1364 189.33 18.9242 193.133 20.5 196.284C22.1061 199.466 24.3636 201.89 27.2727 203.557C30.1818 205.254 33.6212 206.102 37.5909 206.102L37 210.102V186.102H51.8182V225.057H40.0909C31.9091 225.057 24.8788 223.33 19 219.875C13.1515 216.42 8.63636 211.663 5.45455 205.602C2.30303 199.542 0.727273 192.602 0.727273 184.784C0.727273 176.057 2.65152 168.39 6.5 161.784C10.3788 155.178 15.8788 150.027 23 146.33C30.1515 142.663 38.6364 140.83 48.4545 140.83C56 140.83 62.7273 141.92 68.6364 144.102C74.5758 146.314 79.6061 149.405 83.7273 153.375C87.8485 157.345 90.9849 161.966 93.1364 167.239C95.2879 172.511 96.3636 178.223 96.3636 184.375C96.3636 189.648 95.5909 194.557 94.0455 199.102C92.5303 203.648 90.3788 207.678 87.5909 211.193C84.803 214.739 81.4849 217.633 77.6364 219.875C73.8182 222.117 69.6061 223.557 65 224.193V204.193ZM0.636364 271.295C0.636364 264.114 2.09091 257.932 5 252.75C7.93939 247.598 12.0909 243.629 17.4545 240.841C22.8485 238.053 29.2273 236.659 36.5909 236.659C43.7727 236.659 50.0758 238.053 55.5 240.841C60.9242 243.629 65.1515 247.553 68.1818 252.614C71.2121 257.705 72.7273 263.674 72.7273 270.523C72.7273 275.129 71.9848 279.417 70.5 283.386C69.0455 287.386 66.8485 290.871 63.9091 293.841C60.9697 296.841 57.2727 299.174 52.8182 300.841C48.3939 302.508 43.2121 303.341 37.2727 303.341H31.9545L31.9545 244.386H43.9545V285.114C46.7424 285.114 49.2121 284.508 51.3636 283.295C53.5152 282.083 55.197 280.402 56.4091 278.25C57.6515 276.129 58.2727 273.659 58.2727 270.841C58.2727 267.902 57.5909 265.295 56.2273 263.023C54.8939 260.78 53.0909 259.023 50.8182 257.75C48.5758 256.477 46.0758 255.826 43.3182 255.795H31.9091C28.4545 255.795 25.4697 256.432 22.9545 257.705C20.4394 259.008 18.5 260.841 17.1364 263.205C15.7727 265.568 15.0909 268.371 15.0909 271.614C15.0909 273.765 15.3939 275.735 16 277.523C16.6061 279.311 17.5152 280.841 18.7273 282.114C19.9394 283.386 21.4242 284.356 23.1818 285.023L22 302.932C17.697 302.023 13.9394 300.159 10.7273 297.341C7.54545 294.553 5.06061 290.947 3.27273 286.523C1.51515 282.129 0.636364 277.053 0.636364 271.295ZM42.3636 335.341H2V315.977H71.8182V334.432H59.5V335.25C63.5606 336.795 66.7727 339.386 69.1364 343.023C71.5303 346.659 72.7273 351.068 72.7273 356.25C72.7273 361.098 71.6667 365.326 69.5455 368.932C67.4242 372.538 64.3939 375.341 60.4545 377.341C56.5455 379.341 51.8788 380.341 46.4545 380.341H2V360.977H43C47.2727 361.008 50.6061 359.917 53 357.705C55.4242 355.492 56.6364 352.447 56.6364 348.568C56.6364 345.962 56.0758 343.659 54.9545 341.659C53.8333 339.689 52.197 338.144 50.0455 337.023C47.9242 335.932 45.3636 335.371 42.3636 335.341Z" fill="white"/>
</svg>
