<svg width="96" height="372" viewBox="0 0 96 372" fill="none" xmlns="http://www.w3.org/2000/svg">
<path opacity="0.15" d="M0.909088 371.996L0.909088 347.723L63.4545 322.087V320.996L0.909088 295.36L0.909088 271.087H94V290.178H33.4091V290.951L93.5455 315.041V328.041L33.1818 352.132V352.905H94V371.996H0.909088ZM95.3636 223.689C95.3636 230.75 93.8636 236.856 90.8636 242.007C87.8333 247.129 83.6212 251.083 78.2273 253.871C72.803 256.659 66.5152 258.053 59.3636 258.053C52.1515 258.053 45.8485 256.659 40.4545 253.871C35.0303 251.083 30.8182 247.129 27.8182 242.007C24.7879 236.856 23.2727 230.75 23.2727 223.689C23.2727 216.629 24.7879 210.538 27.8182 205.416C30.8182 200.265 35.0303 196.295 40.4545 193.507C45.8485 190.719 52.1515 189.326 59.3636 189.326C66.5152 189.326 72.803 190.719 78.2273 193.507C83.6212 196.295 87.8333 200.265 90.8636 205.416C93.8636 210.538 95.3636 216.629 95.3636 223.689ZM80.3636 223.598C80.3636 220.386 79.4545 217.704 77.6364 215.553C75.7879 213.401 73.2727 211.78 70.0909 210.689C66.9091 209.568 63.2879 209.007 59.2273 209.007C55.1667 209.007 51.5455 209.568 48.3636 210.689C45.1818 211.78 42.6667 213.401 40.8182 215.553C38.9697 217.704 38.0455 220.386 38.0455 223.598C38.0455 226.841 38.9697 229.568 40.8182 231.78C42.6667 233.962 45.1818 235.613 48.3636 236.735C51.5455 237.826 55.1667 238.371 59.2273 238.371C63.2879 238.371 66.9091 237.826 70.0909 236.735C73.2727 235.613 75.7879 233.962 77.6364 231.78C79.4545 229.568 80.3636 226.841 80.3636 223.598ZM95.1364 151.007C95.1364 156.31 93.7727 161.113 91.0455 165.416C88.2879 169.689 84.2424 173.083 78.9091 175.598C73.5455 178.083 66.9697 179.326 59.1818 179.326C51.1818 179.326 44.5303 178.038 39.2273 175.462C33.8939 172.886 29.9091 169.462 27.2727 165.189C24.6061 160.886 23.2727 156.174 23.2727 151.053C23.2727 147.144 23.9394 143.886 25.2727 141.28C26.5758 138.644 28.2121 136.523 30.1818 134.916C32.1212 133.28 34.0303 132.038 35.9091 131.189V130.598H0.909088V111.28H94V130.371H82.8182V131.189C84.7576 132.098 86.6818 133.386 88.5909 135.053C90.4697 136.689 92.0303 138.826 93.2727 141.462C94.5152 144.068 95.1364 147.25 95.1364 151.007ZM79.7273 144.871C79.7273 141.75 78.8788 139.113 77.1818 136.962C75.4545 134.78 73.0455 133.113 69.9545 131.962C66.8636 130.78 63.2424 130.189 59.0909 130.189C54.9394 130.189 51.3333 130.765 48.2727 131.916C45.2121 133.068 42.8485 134.735 41.1818 136.916C39.5151 139.098 38.6818 141.75 38.6818 144.871C38.6818 148.053 39.5455 150.735 41.2727 152.916C43 155.098 45.3939 156.75 48.4545 157.871C51.5151 158.992 55.0606 159.553 59.0909 159.553C63.1515 159.553 66.7424 158.992 69.8636 157.871C72.9545 156.719 75.3788 155.068 77.1364 152.916C78.8636 150.735 79.7273 148.053 79.7273 144.871ZM95.3636 63.5415C95.3636 70.7233 93.9091 76.9051 91 82.0869C88.0606 87.2384 83.9091 91.2081 78.5455 93.996C73.1515 96.7839 66.7727 98.1778 59.4091 98.1778C52.2273 98.1778 45.9242 96.7839 40.5 93.996C35.0758 91.2081 30.8485 87.2839 27.8182 82.2233C24.7879 77.1324 23.2727 71.1627 23.2727 64.3142C23.2727 59.7081 24.0152 55.4202 25.5 51.4506C26.9545 47.4506 29.1515 43.9657 32.0909 40.996C35.0303 37.996 38.7273 35.6627 43.1818 33.996C47.6061 32.3293 52.7879 31.496 58.7273 31.496H64.0455V90.4506H52.0455V49.7233C49.2576 49.7233 46.7879 50.3293 44.6364 51.5415C42.4848 52.7536 40.803 54.4354 39.5909 56.5869C38.3485 58.7081 37.7273 61.1778 37.7273 63.996C37.7273 66.9354 38.4091 69.5415 39.7727 71.8142C41.1061 74.0566 42.9091 75.8142 45.1818 77.0869C47.4242 78.3596 49.9242 79.0112 52.6818 79.0415H64.0909C67.5455 79.0415 70.5303 78.4051 73.0455 77.1324C75.5606 75.8293 77.5 73.996 78.8636 71.6324C80.2273 69.2687 80.9091 66.4657 80.9091 63.2233C80.9091 61.0718 80.6061 59.1021 80 57.3142C79.3939 55.5263 78.4848 53.996 77.2727 52.7233C76.0606 51.4506 74.5758 50.4809 72.8182 49.8142L74 31.9051C78.303 32.8142 82.0606 34.6778 85.2727 37.496C88.4545 40.2839 90.9394 43.8899 92.7273 48.3142C94.4848 52.7081 95.3636 57.7839 95.3636 63.5415ZM0.909088 -0.503996H94L94 18.8596H0.909088V-0.503996ZM44.0909 -74.1063L45.1818 -56.379C43.6667 -56.076 42.303 -55.4244 41.0909 -54.4244C39.8485 -53.4244 38.8636 -52.1063 38.1364 -50.4699C37.3788 -48.8638 37 -46.9396 37 -44.6972C37 -41.6972 37.6364 -39.1669 38.9091 -37.1063C40.1515 -35.0457 41.8182 -34.0154 43.9091 -34.0154C45.5758 -34.0154 46.9848 -34.682 48.1364 -36.0154C49.2879 -37.3487 50.2121 -39.6366 50.9091 -42.879L53.4545 -55.5154C54.8485 -62.3032 57.0909 -67.3638 60.1818 -70.6972C63.2727 -74.0305 67.3333 -75.6972 72.3636 -75.6972C76.9394 -75.6972 80.9545 -74.3487 84.4091 -71.6517C87.8636 -68.9851 90.5606 -65.3184 92.5 -60.6517C94.4091 -56.0154 95.3636 -50.6669 95.3636 -44.6063C95.3636 -35.3638 93.4394 -28.0002 89.5909 -22.5154C85.7121 -17.0608 80.4394 -13.8638 73.7727 -12.9244L72.7727 -31.9699C75.5909 -32.5457 77.7424 -33.9396 79.2273 -36.1517C80.6818 -38.3638 81.4091 -41.1972 81.4091 -44.6517C81.4091 -48.0457 80.7576 -50.7729 79.4545 -52.8335C78.1212 -54.9245 76.4091 -55.9851 74.3182 -56.0154C72.5606 -55.9851 71.1212 -55.2426 70 -53.7881C68.8485 -52.3335 67.9697 -50.0911 67.3636 -47.0608L64.9545 -34.9699C63.5909 -28.1517 61.2273 -23.076 57.8636 -19.7426C54.5 -16.4396 50.2121 -14.7881 45 -14.7881C40.5151 -14.7881 36.6515 -16.0002 33.4091 -18.4244C30.1667 -20.879 27.6667 -24.3184 25.9091 -28.7426C24.1515 -33.1972 23.2727 -38.4093 23.2727 -44.379C23.2727 -53.1972 25.1364 -60.1366 28.8636 -65.1972C32.5909 -70.2881 37.6667 -73.2578 44.0909 -74.1063Z" fill="white"/>
</svg>
