<svg width="97" height="400" viewBox="0 0 97 400" fill="none" xmlns="http://www.w3.org/2000/svg">
<path opacity="0.15" d="M1.90909 331.045H95V348.045L36.4091 388.545V389.227H95V408.909H1.90909V391.636L60.4545 351.455V350.636H1.90909V331.045ZM96.3636 283.33C96.3636 290.511 94.9091 296.693 92 301.875C89.0606 307.027 84.9091 310.996 79.5455 313.784C74.1515 316.572 67.7727 317.966 60.4091 317.966C53.2273 317.966 46.9242 316.572 41.5 313.784C36.0758 310.996 31.8485 307.072 28.8182 302.011C25.7879 296.92 24.2727 290.951 24.2727 284.102C24.2727 279.496 25.0152 275.208 26.5 271.239C27.9545 267.239 30.1515 263.754 33.0909 260.784C36.0303 257.784 39.7273 255.451 44.1818 253.784C48.6061 252.117 53.7879 251.284 59.7273 251.284H65.0455L65.0455 310.239H53.0455L53.0455 269.511C50.2576 269.511 47.7879 270.117 45.6364 271.33C43.4848 272.542 41.803 274.223 40.5909 276.375C39.3485 278.496 38.7273 280.966 38.7273 283.784C38.7273 286.723 39.4091 289.33 40.7727 291.602C42.1061 293.845 43.9091 295.602 46.1818 296.875C48.4242 298.148 50.9242 298.799 53.6818 298.83H65.0909C68.5455 298.83 71.5303 298.193 74.0455 296.92C76.5606 295.617 78.5 293.784 79.8636 291.42C81.2273 289.057 81.9091 286.254 81.9091 283.011C81.9091 280.86 81.6061 278.89 81 277.102C80.3939 275.314 79.4848 273.784 78.2727 272.511C77.0606 271.239 75.5758 270.269 73.8182 269.602L75 251.693C79.303 252.602 83.0606 254.466 86.2727 257.284C89.4545 260.072 91.9394 263.678 93.7273 268.102C95.4848 272.496 96.3636 277.572 96.3636 283.33ZM25.1818 223.716L49.5909 210.898L25.1818 197.761V177.898L60.0909 198.125L95 177.352V197.125L70.8636 210.898L95 224.443V244.443L60.0909 223.716L25.1818 243.716L25.1818 223.716ZM25.1818 129.261H39.7273V171.307H25.1818V129.261ZM8.45454 161.761V142.398H73.5455C75.3333 142.398 76.7273 142.125 77.7273 141.58C78.697 141.034 79.3788 140.277 79.7727 139.307C80.1667 138.307 80.3636 137.155 80.3636 135.852C80.3636 134.943 80.2879 134.034 80.1364 133.125C79.9545 132.216 79.8182 131.519 79.7273 131.034L94.1364 127.989C94.4394 128.958 94.7879 130.322 95.1818 132.08C95.6061 133.837 95.8636 135.973 95.9545 138.489C96.1364 143.155 95.5152 147.246 94.0909 150.761C92.6667 154.246 90.4545 156.958 87.4545 158.898C84.4545 160.837 80.6667 161.792 76.0909 161.761H8.45454ZM32 54.5568C29.7879 55.1932 27.8333 56.0871 26.1364 57.2386C24.4091 58.3901 22.9545 59.7992 21.7727 61.4659C20.5606 63.1023 19.6364 64.9811 19 67.1023C18.3636 69.1932 18.0455 71.5114 18.0455 74.0568C18.0455 78.8144 19.2273 82.9962 21.5909 86.6023C23.9545 90.178 27.3939 92.9659 31.9091 94.9659C36.3939 96.9659 41.8788 97.9659 48.3636 97.9659C54.8485 97.9659 60.3636 96.9811 64.9091 95.0114C69.4545 93.0417 72.9242 90.2538 75.3182 86.6477C77.6818 83.0417 78.8636 78.7841 78.8636 73.875C78.8636 69.4205 78.0758 65.6174 76.5 62.4659C74.8939 59.2841 72.6364 56.8598 69.7273 55.1932C66.8182 53.4962 63.3788 52.6477 59.4091 52.6477L60 48.6477V72.6477H45.1818L45.1818 33.6932H56.9091C65.0909 33.6932 72.1212 35.4205 78 38.875C83.8485 42.3295 88.3636 47.0871 91.5455 53.1477C94.697 59.2083 96.2727 66.1477 96.2727 73.9659C96.2727 82.6932 94.3485 90.3598 90.5 96.9659C86.6212 103.572 81.1212 108.723 74 112.42C66.8485 116.087 58.3636 117.92 48.5455 117.92C41 117.92 34.2727 116.83 28.3636 114.648C22.4242 112.436 17.3939 109.345 13.2727 105.375C9.15151 101.405 6.01515 96.7841 3.86363 91.5114C1.71212 86.2386 0.63636 80.5265 0.63636 74.375C0.63636 69.1023 1.40909 64.1932 2.95454 59.6477C4.4697 55.1023 6.62121 51.072 9.40909 47.5568C12.197 44.0114 15.5151 41.1174 19.3636 38.875C23.1818 36.6326 27.3939 35.1932 32 34.5568V54.5568ZM96.3636 -12.5455C96.3636 -5.36364 94.9091 0.818181 92 6C89.0606 11.1515 84.9091 15.1212 79.5455 17.9091C74.1515 20.697 67.7727 22.0909 60.4091 22.0909C53.2273 22.0909 46.9242 20.697 41.5 17.9091C36.0758 15.1212 31.8485 11.197 28.8182 6.13636C25.7879 1.04545 24.2727 -4.92424 24.2727 -11.7727C24.2727 -16.3788 25.0152 -20.6667 26.5 -24.6364C27.9545 -28.6364 30.1515 -32.1212 33.0909 -35.0909C36.0303 -38.0909 39.7273 -40.4242 44.1818 -42.0909C48.6061 -43.7576 53.7879 -44.5909 59.7273 -44.5909H65.0455V14.3636H53.0455V-26.3636C50.2576 -26.3636 47.7879 -25.7576 45.6364 -24.5455C43.4848 -23.3333 41.803 -21.6515 40.5909 -19.5C39.3485 -17.3788 38.7273 -14.9091 38.7273 -12.0909C38.7273 -9.15152 39.4091 -6.54546 40.7727 -4.27273C42.1061 -2.0303 43.9091 -0.272728 46.1818 1C48.4242 2.27273 50.9242 2.92424 53.6818 2.95454H65.0909C68.5455 2.95454 71.5303 2.31818 74.0455 1.04545C76.5606 -0.257577 78.5 -2.09091 79.8636 -4.45455C81.2273 -6.81818 81.9091 -9.62121 81.9091 -12.8636C81.9091 -15.0152 81.6061 -16.9849 81 -18.7727C80.3939 -20.5606 79.4848 -22.0909 78.2727 -23.3636C77.0606 -24.6364 75.5758 -25.6061 73.8182 -26.2727L75 -44.1818C79.303 -43.2727 83.0606 -41.4091 86.2727 -38.5909C89.4545 -35.803 91.9394 -32.197 93.7273 -27.7727C95.4848 -23.3788 96.3636 -18.303 96.3636 -12.5455ZM54.6364 -76.5909H95V-57.2273H25.1818V-75.6818H37.5V-76.5C33.4394 -78.0455 30.2273 -80.6364 27.8636 -84.2727C25.4697 -87.9091 24.2727 -92.3182 24.2727 -97.5C24.2727 -102.348 25.3333 -106.576 27.4545 -110.182C29.5758 -113.788 32.6061 -116.591 36.5455 -118.591C40.4545 -120.591 45.1212 -121.591 50.5455 -121.591H95V-102.227H54C49.7273 -102.258 46.3939 -101.167 44 -98.9545C41.5758 -96.7424 40.3636 -93.697 40.3636 -89.8182C40.3636 -87.2121 40.9242 -84.9091 42.0455 -82.9091C43.1667 -80.9394 44.803 -79.3939 46.9545 -78.2727C49.0758 -77.1818 51.6364 -76.6212 54.6364 -76.5909Z" fill="white"/>
</svg>
