<svg width="96" height="400" viewBox="0 0 96 400" fill="none" xmlns="http://www.w3.org/2000/svg">
<path opacity="0.15" d="M95.0909 -25.2135V-0.940807L32.5455 24.6956V25.7865L95.0909 51.4228V75.6956L2 75.6956V56.6047L62.5909 56.6047V55.8319L2.45455 31.741V18.741L62.8182 -5.3499V-6.12262L2 -6.12262V-25.2135L95.0909 -25.2135ZM0.636364 123.093C0.636364 116.033 2.13636 109.927 5.13636 104.775C8.16667 99.6539 12.3788 95.6993 17.7727 92.9115C23.197 90.1236 29.4848 88.7296 36.6364 88.7296C43.8485 88.7296 50.1515 90.1236 55.5455 92.9115C60.9697 95.6993 65.1818 99.6539 68.1818 104.775C71.2121 109.927 72.7273 116.033 72.7273 123.093C72.7273 130.154 71.2121 136.245 68.1818 141.366C65.1818 146.518 60.9697 150.487 55.5455 153.275C50.1515 156.063 43.8485 157.457 36.6364 157.457C29.4848 157.457 23.197 156.063 17.7727 153.275C12.3788 150.487 8.16667 146.518 5.13636 141.366C2.13636 136.245 0.636364 130.154 0.636364 123.093ZM15.6364 123.184C15.6364 126.396 16.5455 129.078 18.3636 131.23C20.2121 133.381 22.7273 135.002 25.9091 136.093C29.0909 137.214 32.7121 137.775 36.7727 137.775C40.8333 137.775 44.4545 137.214 47.6364 136.093C50.8182 135.002 53.3333 133.381 55.1818 131.23C57.0303 129.078 57.9545 126.396 57.9545 123.184C57.9545 119.942 57.0303 117.214 55.1818 115.002C53.3333 112.821 50.8182 111.169 47.6364 110.048C44.4545 108.957 40.8333 108.411 36.7727 108.411C32.7121 108.411 29.0909 108.957 25.9091 110.048C22.7273 111.169 20.2121 112.821 18.3636 115.002C16.5455 117.214 15.6364 119.942 15.6364 123.184ZM0.863636 195.775C0.863636 190.472 2.22727 185.669 4.95455 181.366C7.71212 177.093 11.7576 173.699 17.0909 171.184C22.4545 168.699 29.0303 167.457 36.8182 167.457C44.8182 167.457 51.4697 168.745 56.7727 171.321C62.1061 173.896 66.0909 177.321 68.7273 181.593C71.3939 185.896 72.7273 190.608 72.7273 195.73C72.7273 199.639 72.0606 202.896 70.7273 205.502C69.4242 208.139 67.7879 210.26 65.8182 211.866C63.8788 213.502 61.9697 214.745 60.0909 215.593V216.184H95.0909V235.502H2V216.411H13.1818V215.593C11.2424 214.684 9.31818 213.396 7.40909 211.73C5.5303 210.093 3.9697 207.957 2.72727 205.321C1.48485 202.714 0.863636 199.533 0.863636 195.775ZM16.2727 201.911C16.2727 205.033 17.1212 207.669 18.8182 209.821C20.5455 212.002 22.9545 213.669 26.0455 214.821C29.1364 216.002 32.7576 216.593 36.9091 216.593C41.0606 216.593 44.6667 216.018 47.7273 214.866C50.7879 213.714 53.1515 212.048 54.8182 209.866C56.4849 207.684 57.3182 205.033 57.3182 201.911C57.3182 198.73 56.4545 196.048 54.7273 193.866C53 191.684 50.6061 190.033 47.5455 188.911C44.4849 187.79 40.9394 187.23 36.9091 187.23C32.8485 187.23 29.2576 187.79 26.1364 188.911C23.0455 190.063 20.6212 191.714 18.8636 193.866C17.1364 196.048 16.2727 198.73 16.2727 201.911ZM0.636364 283.241C0.636364 276.059 2.09091 269.877 5 264.696C7.93939 259.544 12.0909 255.574 17.4545 252.786C22.8485 249.999 29.2273 248.605 36.5909 248.605C43.7727 248.605 50.0758 249.999 55.5 252.786C60.9242 255.574 65.1515 259.499 68.1818 264.559C71.2121 269.65 72.7273 275.62 72.7273 282.468C72.7273 287.074 71.9848 291.362 70.5 295.332C69.0455 299.332 66.8485 302.817 63.9091 305.786C60.9697 308.786 57.2727 311.12 52.8182 312.786C48.3939 314.453 43.2121 315.286 37.2727 315.286H31.9545V256.332H43.9545V297.059C46.7424 297.059 49.2121 296.453 51.3636 295.241C53.5152 294.029 55.197 292.347 56.4091 290.196C57.6515 288.074 58.2727 285.605 58.2727 282.786C58.2727 279.847 57.5909 277.241 56.2273 274.968C54.8939 272.726 53.0909 270.968 50.8182 269.696C48.5758 268.423 46.0758 267.771 43.3182 267.741H31.9091C28.4545 267.741 25.4697 268.377 22.9545 269.65C20.4394 270.953 18.5 272.786 17.1364 275.15C15.7727 277.514 15.0909 280.317 15.0909 283.559C15.0909 285.711 15.3939 287.68 16 289.468C16.6061 291.256 17.5152 292.786 18.7273 294.059C19.9394 295.332 21.4242 296.302 23.1818 296.968L22 314.877C17.697 313.968 13.9394 312.105 10.7273 309.286C7.54545 306.499 5.06061 302.893 3.27273 298.468C1.51515 294.074 0.636364 288.999 0.636364 283.241ZM95.0909 347.286H2L2 327.923H95.0909V347.286ZM51.9091 420.889L50.8182 403.161C52.3333 402.858 53.697 402.207 54.9091 401.207C56.1515 400.207 57.1364 398.889 57.8636 397.252C58.6212 395.646 59 393.722 59 391.48C59 388.48 58.3636 385.949 57.0909 383.889C55.8485 381.828 54.1818 380.798 52.0909 380.798C50.4242 380.798 49.0152 381.464 47.8636 382.798C46.7121 384.131 45.7879 386.419 45.0909 389.661L42.5455 402.298C41.1515 409.086 38.9091 414.146 35.8182 417.48C32.7273 420.813 28.6667 422.48 23.6364 422.48C19.0606 422.48 15.0455 421.131 11.5909 418.434C8.13636 415.768 5.43939 412.101 3.5 407.434C1.59091 402.798 0.636364 397.449 0.636364 391.389C0.636364 382.146 2.56061 374.783 6.40909 369.298C10.2879 363.843 15.5606 360.646 22.2273 359.707L23.2273 378.752C20.4091 379.328 18.2576 380.722 16.7727 382.934C15.3182 385.146 14.5909 387.98 14.5909 391.434C14.5909 394.828 15.2424 397.555 16.5455 399.616C17.8788 401.707 19.5909 402.768 21.6818 402.798C23.4394 402.768 24.8788 402.025 26 400.571C27.1515 399.116 28.0303 396.874 28.6364 393.843L31.0455 381.752C32.4091 374.934 34.7727 369.858 38.1364 366.525C41.5 363.222 45.7879 361.571 51 361.571C55.4849 361.571 59.3485 362.783 62.5909 365.207C65.8333 367.661 68.3333 371.101 70.0909 375.525C71.8485 379.98 72.7273 385.192 72.7273 391.161C72.7273 399.98 70.8636 406.919 67.1364 411.98C63.4091 417.071 58.3333 420.04 51.9091 420.889Z" fill="white"/>
</svg>
